<?xml version="1.0" encoding="utf-8"?>
<!-- Generator: Adobe Illustrator 27.5.0, SVG Export Plug-In . SVG Version: 6.00 Build 0)  -->
<svg version="1.1" id="Capa_1" xmlns="http://www.w3.org/2000/svg" xmlns:xlink="http://www.w3.org/1999/xlink" x="0px" y="0px"
	 viewBox="0 0 425.196 425.197" style="enable-background:new 0 0 425.196 425.197;" xml:space="preserve">
<rect x="-0.001" y="0.001" style="fill:#84D2DF;" width="425.197" height="425.196"/>
<g>
	<g>
		<g>
			<path style="fill:#EC524F;" d="M88.911,205.649v-25.727h56.125v25.727h14.562v-27.448c0-7.081-5.762-12.84-12.842-12.84H87.191
				c-7.08,0-12.842,5.759-12.842,12.84v27.448H88.911z"/>
		</g>
		<path style="fill:#00B9C5;" d="M213.857,340.781c0,4.182-3.391,7.572-7.572,7.572H27.661c-4.182,0-7.573-3.39-7.573-7.572V209.144
			c0-4.183,3.392-7.573,7.573-7.573h178.624c4.182,0,7.572,3.39,7.572,7.573V340.781z"/>
		<path style="fill:#FFFFFF;" d="M73.146,235.437c1.373,9.045,4.646,17.552,10.392,24.735c7.243,9.059,16.747,15.969,27.386,20.533
			c20.106,8.626,42.815,9.24,64.209,6.088c11.218-1.653,22.567-4.56,32.923-9.417v-65.672c0-3.345-2.711-6.054-6.056-6.054H75.553
			C72.48,215.368,71.701,225.925,73.146,235.437z"/>
		<path style="fill:#939598;" d="M203.105,299.669c-11.352,3.922-23.157,6.385-35.078,7.767
			c-12.798,1.485-25.945,2.138-38.791,0.906c-27.681-2.656-56.176-13.412-73.766-35.914c-14.015-17.931-17.678-41.481-13.039-63.511
			c0.521-2.469,1.155-4.923,1.895-7.346H27.661c-4.182,0-7.573,3.39-7.573,7.573v131.638c0,4.182,3.392,7.572,7.573,7.572h178.624
			c4.182,0,7.572-3.39,7.572-7.572v-45.41C210.344,296.972,206.754,298.41,203.105,299.669z"/>
		<path style="fill:#939598;" d="M167.919,274.963c0,28.136-22.809,50.945-50.946,50.945c-28.136,0-50.944-22.809-50.944-50.945
			c0-28.137,22.809-50.947,50.944-50.947C145.11,224.016,167.919,246.826,167.919,274.963z"/>
		<g>
			<path style="fill:#23515E;" d="M161.502,274.963c0,24.592-19.936,44.528-44.53,44.528c-24.592,0-44.527-19.935-44.527-44.528
				c0-24.593,19.936-44.53,44.527-44.53C141.566,230.433,161.502,250.37,161.502,274.963z"/>
			<polygon style="fill:#FFFFFF;" points="142.27,262.649 124.056,262.649 124.056,241.064 109.89,241.064 109.89,262.649 
				91.676,262.649 91.676,276.816 109.89,276.816 109.89,308.859 124.056,308.859 124.056,276.816 142.27,276.816 			"/>
			<path style="fill:#FFFFFF;" d="M112.323,237.983c-5.318,5.89-8.861,13.24-8.649,21.231c0.362,13.705,12.606,24.765,26.306,24.603
				c11.842-0.141,21.174-7.767,23.907-19.172c0.133-0.551,0.251-1.108,0.363-1.662c-4.843-14.861-18.802-25.605-35.279-25.605
				C116.701,237.377,114.482,237.591,112.323,237.983z"/>
			<path style="fill:#BCBEC0;" d="M125.544,291.406c-17.739-2.294-33.389-17.461-32.515-36.005
				c0.371-7.843,2.967-15.205,7.086-21.656c-16.232,6.647-27.67,22.592-27.67,41.218c0,24.592,19.936,44.528,44.527,44.528
				c24.595,0,44.53-19.935,44.53-44.528c0-0.802-0.023-1.597-0.066-2.387C155.004,285.94,140.3,293.315,125.544,291.406z"/>
		</g>
		<path style="fill:#FFFFFF;" d="M150.658,212.687c1.837-0.336,3.673-0.59,5.508-0.824c1.837-0.214,3.672-0.435,5.509-0.583
			c3.673-0.371,7.344-0.583,11.016-0.747c3.672-0.153,7.345-0.254,11.017-0.261c3.671-0.023,7.344,0.023,11.016,0.148l0.218,0.008
			l0.048,0.008c0.77,0.133,1.284,0.28,1.88,0.477c0.581,0.177,1.126,0.429,1.674,0.671c0.534,0.272,1.07,0.542,1.575,0.864
			c0.497,0.34,1.015,0.639,1.458,1.054c0.457,0.392,0.926,0.763,1.316,1.226c0.406,0.443,0.822,0.87,1.138,1.383
			c0.32,0.504,0.709,0.959,0.94,1.507c0.254,0.532,0.526,1.055,0.724,1.598l0.499,1.657c0.162,0.548,0.196,1.119,0.295,1.67
			c0.096,0.554,0.157,1.107,0.127,1.662l-0.017,1.646c-0.014,0.544-0.119,1.08-0.192,1.613l-0.263,1.583
			c-0.276,1.035-0.587,2.051-0.908,3.045c-0.051-1.062-0.091-2.102-0.095-3.126l-0.18-1.527c-0.077-0.502-0.07-1.005-0.184-1.494
			l-0.328-1.452c-0.081-0.487-0.26-0.942-0.42-1.394c-0.172-0.447-0.277-0.918-0.494-1.336l-0.642-1.241
			c-0.228-0.398-0.536-0.746-0.775-1.123c-0.225-0.394-0.585-0.681-0.869-1.019c-0.276-0.346-0.645-0.606-0.972-0.896
			c-0.313-0.305-0.702-0.528-1.063-0.773c-0.348-0.264-0.769-0.427-1.144-0.648c-0.389-0.2-0.804-0.358-1.208-0.522
			c-0.419-0.139-0.834-0.277-1.255-0.379c-0.394-0.11-0.893-0.195-1.148-0.221l0.264,0.017c-3.672,0.124-7.344,0.167-11.016,0.146
			c-3.672-0.005-7.344-0.108-11.017-0.262c-3.671-0.164-7.343-0.376-11.016-0.746c-1.837-0.148-3.672-0.369-5.509-0.584
			C154.331,213.276,152.495,213.024,150.658,212.687z"/>
	</g>
	<g>
		<g>
			<g>
				<rect x="233.14" y="248.226" style="fill:#ECB79E;" width="55.589" height="41.799"/>
				<path style="fill:#D1D3D4;" d="M248.688,280.272c8.94-0.389,17.645-4.14,24.516-9.832c5.577-4.622,10.078-10.114,13.454-16.523
					c0.665-1.257,1.397-2.685,2.071-4.208v-1.484H233.14v31.276C238.309,280.191,243.542,280.497,248.688,280.272z"/>
			</g>
			<path style="fill:#ECB79E;" d="M258.872,71.646c-37.752,0.802-73.556,30.623-67.906,81.309
				c3.414,30.627,6.081,35.174,15.204,70.338c6.313,24.329,39.901,37.166,52.702,38.001c12.803-0.836,46.393-13.672,52.704-38.001
				c9.125-35.164,11.79-39.711,15.208-70.338C332.432,102.269,296.627,72.448,258.872,71.646z"/>
			<g>
				<path style="fill:#ECB79E;" d="M322.331,166.611l-3.963,30.345c15.57,6.859,18.008-28.853,18.008-28.853
					C332.774,159.199,322.331,166.611,322.331,166.611z"/>
				<path style="fill:#ECB79E;" d="M180.84,168.104c0,0,2.433,35.712,18.005,28.853l-3.963-30.345
					C194.882,166.611,184.441,159.199,180.84,168.104z"/>
			</g>
			<path style="fill:#3C2415;" d="M314.553,128.924"/>
			<path style="fill:#ECB79E;" d="M288.728,277.899l73.775,20.677c0,0,25.174,4.153,31.595,28.51l11.011,44.155H261.673h-1.261
				H116.973l11.01-44.155c6.426-24.357,31.599-28.51,31.599-28.51l73.559-20.677H288.728z"/>
			<path style="fill:#00BBC0;" d="M288.728,277.899l73.775,20.677c0,0,25.174,4.153,31.595,28.51l11.011,44.155H261.673h-1.261
				H116.973l11.01-44.155c6.426-24.357,31.599-28.51,31.599-28.51l73.559-20.677l27.902,57.792L288.728,277.899z"/>
			<path style="fill:#FFFFFF;stroke:#A7A9AC;stroke-width:3.2041;stroke-miterlimit:10;" d="M222.217,371.239H116.973l11.01-44.156
				c6.426-24.355,31.599-28.507,31.599-28.507l64.964-18.231L222.217,371.239z"/>
			<path style="fill:#FFFFFF;stroke:#A7A9AC;stroke-width:3.2041;stroke-miterlimit:10;" d="M301.504,281.48l60.999,17.095
				c0,0,25.174,4.153,31.595,28.51l11.011,44.155H299.971L301.504,281.48z"/>
			<g>
				<path style="fill:#A7A9AC;" d="M203.98,321.864c0,0,24.304-17.71,47.318-5.685C251.299,316.179,237.49,281.881,203.98,321.864"
					/>
				<path style="fill:#00A7AB;" d="M253.311,319.665c0,0-11.294-28.464-49.331,2.199l13.588-39.587l15.81-4.378L253.311,319.665z"/>
			</g>
			<g>
				<path style="fill:#A7A9AC;" d="M318.138,321.864c0,0-29.409-20.443-48.292-4.549
					C269.845,317.315,284.628,281.881,318.138,321.864"/>
				<path style="fill:#00A7AB;" d="M269.845,317.315c0,0,10.256-26.115,48.292,4.549l-13.542-39.517l-15.854-4.448L269.845,317.315z
					"/>
			</g>
			<path style="fill:#BCBEC0;" d="M218.206,98.309c0,0-8.013,30.128,47.67,45.998c0,0,42.917,8.454,60.554-2.709
				C326.43,141.597,309.995,73.057,218.206,98.309z"/>
			<path style="fill:#440D02;" d="M336.376,103.919c-0.745,15.684,0.082,34.271-7.938,61.535
				c-0.898,3.036-4.308,11.903-4.308,11.903l-2.853,0.091V157.72c-1.751-28.102-3.586-28.305-3.586-28.305
				c-55.682,15.382-90.009-12.933-90.009-12.933c-3.39-3.083-5.869-6.161-7.673-9.174c-4.666,3.688-9.134,8.826-12.893,15.979
				c0,0-8.618,14.191-7.63,38.249v19.729l-2.997-1.186l-4.165-15.575c-5.369-30.892-2.227-69.112-2.227-69.112
				s5.596-33.467,46.181-40.93c0,0,71.851-6.673,91.093,17.184C327.372,71.646,337.292,84.601,336.376,103.919z"/>
			<g>
				<path style="fill:#300000;" d="M215.2,79.451c0,0-0.358,2.079-0.403,5.71c-0.009,1.812,0.042,4.01,0.345,6.492
					c0.309,2.478,0.832,5.24,1.719,8.135c0.935,2.88,2.28,5.862,4.081,8.755c1.781,2.913,4.212,5.597,7.018,8.001
					c1.359,1.257,2.965,2.272,4.51,3.387c0.821,0.493,1.67,0.958,2.507,1.443c0.423,0.236,0.834,0.495,1.264,0.724l1.335,0.62
					c0.891,0.414,1.785,0.831,2.683,1.248c0.933,0.345,1.87,0.691,2.808,1.038c1.843,0.772,3.83,1.216,5.759,1.802
					c0.959,0.313,1.958,0.505,2.949,0.72l2.969,0.643c1.982,0.402,4.001,0.64,5.98,0.971c0.988,0.179,1.99,0.258,2.985,0.349
					c0.995,0.1,1.985,0.198,2.969,0.297c1.964,0.244,3.927,0.285,5.854,0.393c3.85,0.265,7.597,0.22,11.153,0.276
					c1.778,0.044,3.508-0.103,5.185-0.12c1.679-0.036,3.3-0.071,4.857-0.104c3.108-0.196,5.968-0.348,8.507-0.467
					c1.273-0.042,2.455-0.161,3.553-0.242c1.098-0.083,2.106-0.159,3.018-0.227c3.648-0.27,5.75-0.369,5.75-0.369
					s-2.029,0.513-5.611,1.316c-1.795,0.372-3.96,0.952-6.484,1.349c-2.52,0.432-5.367,0.929-8.487,1.392
					c-3.134,0.346-6.528,0.811-10.144,1.061c-3.62,0.188-7.441,0.513-11.418,0.4c-1.987-0.004-4.007,0.009-6.055-0.17
					c-2.046-0.162-4.124-0.199-6.206-0.502c-1.043-0.139-2.088-0.279-3.138-0.419c-1.048-0.155-2.106-0.243-3.148-0.495
					c-1.047-0.219-2.095-0.439-3.145-0.658c-1.049-0.222-2.104-0.415-3.135-0.747c-2.064-0.638-4.163-1.129-6.162-1.975
					c-1.007-0.39-2.012-0.779-3.015-1.167c-0.971-0.475-1.938-0.948-2.902-1.419l-1.439-0.709c-0.466-0.263-0.921-0.55-1.376-0.828
					c-0.907-0.566-1.819-1.111-2.703-1.687c-1.686-1.289-3.412-2.479-4.867-3.96c-3.023-2.804-5.505-6.015-7.261-9.354
					c-1.809-3.312-2.954-6.698-3.653-9.863c-0.689-3.175-0.881-6.135-0.889-8.732c-0.032-2.602,0.267-4.849,0.536-6.676
					c0.266-1.831,0.654-3.235,0.9-4.187C215.012,79.941,215.2,79.451,215.2,79.451z"/>
			</g>
			<path style="opacity:0.5;fill:#FFFFFF;" d="M221.941,85.622c0,0,8.545,29.393,43.936,37.49c0,0-17.245-8.506-21.97-22.998
				c0,0,8.474,9.502,21.97,10.101c0,0-22.794-17.694-23.393-27.892c0,0-10.448,9.297-2.225,20.394
				C240.258,102.717,233.486,101.517,221.941,85.622z"/>
			<path style="opacity:0.5;fill:#FFFFFF;" d="M280.732,66.244c0,0,44.378-0.801,46.642,42.887c0,0-2.25-10.022-12.821-14.23
				c0,0,15.08,17.582,11.877,46.696c0,0,5.669-20.842-32.436-51.707c0,0,13.111-4.007,24.375,1.604
				C318.368,91.494,310.394,71.854,280.732,66.244z"/>
			<g>
				<path d="M228.533,147.595c-13.314-0.112-26.696-0.683-25.764,19.677c0.547,11.963,9.023,22.477,22.292,23.545
					c13.264,1.068,23.946-7.703,28.083-19.581C255.615,160.648,261.469,147.863,228.533,147.595z M249.762,170.955
					c-3.572,10.257-12.787,17.823-24.245,16.903c-11.455-0.919-18.77-9.997-19.244-20.324
					c-0.802-17.575,10.751-17.085,22.246-16.986C256.949,150.781,251.895,161.82,249.762,170.955z"/>
				<path d="M267.852,172.499c4.364,11.795,15.214,20.356,28.457,19.032c13.248-1.32,21.515-11.995,21.833-23.968
					c0.538-20.376-12.832-19.542-26.139-19.178C259.081,149.292,265.179,161.963,267.852,172.499z M292.075,151.338
					c11.489-0.317,23.033-1.033,22.566,16.558c-0.276,10.332-7.41,19.549-18.843,20.689c-11.441,1.14-20.802-6.244-24.568-16.428
					C268.922,163.058,263.655,152.12,292.075,151.338z"/>
				<path d="M254.54,161.452c0,0,7.085-4.646,13.772,0.169c0,0-1.585-4.57,1.368-7.633c0,0-7.253-3.552-16.583-0.204
					C253.097,153.784,254.982,158.33,254.54,161.452z"/>
				<path d="M209.773,150.04l-18.808,2.916l1.359,11.549l12.37,6.542C204.695,171.047,202.561,158.4,209.773,150.04z"/>
				<path d="M312.666,151.633l18.054,5.351l-2.825,10.152l-10.667,5.624C317.228,172.759,319.675,160.167,312.666,151.633z"/>
				<path style="opacity:0.2;fill:#FFFFFF;" d="M292.075,151.338c11.489-0.317,23.033-1.033,22.566,16.558
					c-0.276,10.332-7.41,19.549-18.843,20.689c-11.441,1.14-20.802-6.244-24.568-16.428
					C268.922,163.058,263.655,152.12,292.075,151.338z"/>
				<path style="opacity:0.2;fill:#FFFFFF;" d="M249.764,170.845c-3.569,10.256-12.788,17.823-24.246,16.903
					c-11.451-0.92-18.768-9.998-19.24-20.325c-0.806-17.576,10.747-17.084,22.242-16.984
					C256.951,150.669,251.896,161.709,249.764,170.845z"/>
			</g>
		</g>
		<g>
			<g>
				<path style="fill:#151E31;" d="M233.203,262.918h-4.649c-1.424-0.04-11.553,0.042-21.484,9.455
					c-13.329,12.633-24.367,48.114-22.064,85.821l7.954-0.002c-2.639-40.841,11.426-72.167,19.355-79.827
					c7.951-7.683,15.68-7.506,15.962-7.5l4.928,0.001V262.918z"/>
				<path style="fill:#151E31;" d="M317.643,270.333c-5.28-5.699-14.314-8.189-26.838-7.415h-2.291v7.954h2.419l0.25-0.006
					c9.858-0.632,16.963,1.022,20.537,4.779c3.034,3.191,2.639,7.014,2.62,7.176l7.884,1.059
					C322.267,283.573,323.209,276.34,317.643,270.333z"/>
			</g>
			<g>
				<g>
					<path style="fill:#BCBEC0;" d="M347.272,323.905c0.971,0,1.775,0.761,1.819,1.739c0.023,0.479,0.527,11.921-1.358,27.006
						c-0.043,0.492-0.479,4.598-2.622,8.741c-3.069,5.945-8.112,9.086-14.581,9.086c-1.003,0-1.819-0.816-1.819-1.822
						c0-1.006,0.816-1.823,1.819-1.823c12.173,0,13.526-13.938,13.577-14.532c0.001-0.021,0.005-0.046,0.008-0.071
						c1.852-14.791,1.343-26.302,1.336-26.417c-0.046-1.003,0.73-1.857,1.736-1.904
						C347.215,323.905,347.245,323.905,347.272,323.905z"/>
				</g>
				<path style="fill:#BCBEC0;" d="M330.53,370.477c6.469,0,11.512-3.141,14.581-9.086c2.143-4.144,2.579-8.249,2.622-8.741
					c1.885-15.085,1.382-26.526,1.358-27.006c-0.044-0.979-0.849-1.739-1.819-1.739c-0.027,0-0.058,0-0.085,0.003
					c-1.006,0.047-1.783,0.901-1.736,1.904c0,0.022,0.022,0.482,0.04,1.308c0.04-0.006,0.079-0.016,0.12-0.018
					c0.029-0.001,0.053-0.001,0.076-0.001c0.855,0,1.566,0.671,1.605,1.533c0.022,0.424,0.465,10.523-1.198,23.836
					c-0.042,0.434-0.425,4.059-2.315,7.716c-2.71,5.248-7.158,8.019-12.868,8.019c-0.668,0-1.239-0.409-1.482-0.99
					c-0.435,0.333-0.718,0.852-0.718,1.44C328.711,369.661,329.527,370.477,330.53,370.477z"/>
			</g>
			<g>
				<g>
					<path style="fill:#BCBEC0;" d="M290.72,323.905c-0.966,0-1.773,0.761-1.818,1.739c-0.023,0.479-0.525,11.921,1.358,27.006
						c0.047,0.492,0.479,4.598,2.623,8.741c3.073,5.945,8.111,9.086,14.579,9.086c1.004,0,1.82-0.816,1.82-1.822
						c0-1.006-0.816-1.823-1.82-1.823c-12.171,0-13.524-13.938-13.576-14.532c0-0.021-0.003-0.046-0.005-0.071
						c-1.851-14.791-1.346-26.302-1.341-26.417c0.051-1.003-0.727-1.857-1.735-1.904
						C290.777,323.905,290.747,323.905,290.72,323.905z"/>
				</g>
				<path style="fill:#BCBEC0;" d="M307.462,370.477c-6.468,0-11.506-3.141-14.579-9.086c-2.144-4.144-2.576-8.249-2.623-8.741
					c-1.883-15.085-1.381-26.526-1.358-27.006c0.045-0.979,0.852-1.739,1.818-1.739c0.027,0,0.057,0,0.085,0.003
					c1.008,0.047,1.786,0.901,1.735,1.904c0,0.022-0.018,0.482-0.035,1.308c-0.041-0.006-0.08-0.016-0.124-0.018
					c-0.023-0.001-0.05-0.001-0.073-0.001c-0.855,0-1.568,0.671-1.607,1.533c-0.021,0.424-0.463,10.523,1.2,23.836
					c0.043,0.434,0.422,4.059,2.313,7.716c2.71,5.248,7.163,8.019,12.868,8.019c0.668,0,1.241-0.409,1.484-0.99
					c0.434,0.333,0.717,0.852,0.717,1.44C309.282,369.661,308.466,370.477,307.462,370.477z"/>
			</g>
			<g>
				<path style="fill:#151E31;" d="M317.718,281.032c0.111,0,0.21,0.004,0.281,0.004c0.075,0,0.15,0,0.232,0
					c7.368,0,13.685,2.314,18.781,6.88c14.726,13.196,13.92,40.988,13.88,42.164c-0.064,1.765-1.751,3.15-3.756,3.098
					c-2.012-0.054-3.591-1.531-3.532-3.297c0.014-0.351,0.722-26.279-11.809-37.495c-3.776-3.382-8.287-4.999-13.805-4.953
					c-0.111,0-0.146,0.002-0.25-0.006c-0.453-0.007-5.783-0.042-11.226,4.545c-5.54,4.664-12.141,15.044-12.141,38.009
					c0,1.766-1.63,3.198-3.643,3.198c-2.015,0-3.646-1.432-3.646-3.198c0-20.44,4.927-34.853,14.64-42.841
					C308.657,281.439,315.825,281.035,317.718,281.032z"/>
			</g>
			<path style="fill:#A7A9AC;" d="M290.73,333.18c1.955,0,3.543-1.35,3.633-3.043c-1.753-0.002-3.167-1.249-3.167-2.786
				c0-17.808,4.289-30.365,12.751-37.326c6.044-4.965,12.285-5.321,13.937-5.321c0.097,0,0.182,0.002,0.245,0.004
				c0.067,0,0.13-0.001,0.197-0.001c6.419,0,11.926,2.018,16.366,5.995c12.824,11.495,12.127,35.708,12.092,36.734
				c-0.053,1.51-1.47,2.696-3.174,2.697c0.087,1.652,1.61,2.993,3.525,3.045c2.005,0.052,3.691-1.333,3.756-3.098
				c0.04-1.176,0.846-28.968-13.88-42.164c-5.097-4.566-11.413-6.88-18.781-6.88c-0.082,0-0.156,0-0.232,0
				c-0.071,0-0.17-0.004-0.281-0.004c-1.893,0.003-9.061,0.406-15.994,6.108c-9.713,7.988-14.64,22.401-14.64,42.841
				C287.084,331.748,288.715,333.18,290.73,333.18z"/>
			<g>
				<path style="fill:#151E31;" d="M323.361,368.455c0-1.733,1.401-3.139,3.136-3.139l5.875,0.507c1.82,0.454,1.767,1.41,1.82,2.631
					l0,0c0,1.317,0,2.277-1.977,2.732l-5.718,0.406C324.763,371.593,323.361,370.189,323.361,368.455L323.361,368.455z"/>
				<path style="fill:#FFFFFF;" d="M327.739,368.455c-1.39,0.006-2.299,0.405-3.031,1.458c0.566,0.554,1.34,0.896,2.195,0.896
					l3.475-0.247C330.511,368.891,329.492,368.446,327.739,368.455z"/>
				<path style="fill:#808285;" d="M329.004,366.767c2.566,0.367,3.578,2.133,3.572,4.326c1.614-0.486,1.616-1.408,1.616-2.638
					c-0.054-1.221,0-2.177-1.82-2.631l-5.875-0.507c-1.529,0-2.799,1.094-3.081,2.541
					C324.926,366.704,326.865,366.46,329.004,366.767z"/>
			</g>
			<g>
				<path style="fill:#151E31;" d="M316.379,368.455c0-1.733-1.407-3.139-3.141-3.139l-5.868,0.507
					c-1.825,0.454-1.771,1.41-1.825,2.631l0,0c0,1.317,0,2.277,1.975,2.732l5.718,0.406
					C314.972,371.593,316.379,370.189,316.379,368.455L316.379,368.455z"/>
				<path style="fill:#FFFFFF;" d="M311.999,368.455c1.388,0.006,2.3,0.405,3.025,1.458c-0.564,0.554-1.335,0.896-2.189,0.896
					l-3.478-0.247C309.226,368.891,310.243,368.446,311.999,368.455z"/>
				<path style="fill:#808285;" d="M310.73,366.767c-2.567,0.367-3.575,2.133-3.568,4.326c-1.614-0.486-1.617-1.408-1.617-2.638
					c0.054-1.221,0-2.177,1.825-2.631l5.868-0.507c1.527,0,2.8,1.094,3.081,2.541C314.809,366.704,312.877,366.46,310.73,366.767z"
					/>
			</g>
			<g>
				<path style="fill:#151E31;" d="M173.258,354.474c0-9.453,7.663-17.116,17.117-17.116c9.452,0,17.119,7.663,17.119,17.116
					c0,9.455-7.667,17.119-17.119,17.119C180.921,371.593,173.258,363.929,173.258,354.474z"/>
				<path style="fill:#A7A9AC;" d="M177.958,354.474c0-6.856,5.559-12.414,12.417-12.414c6.857,0,12.418,5.558,12.418,12.414
					c0,6.858-5.561,12.416-12.418,12.416C183.517,366.89,177.958,361.332,177.958,354.474z"/>
				<path style="fill:#939598;" d="M179.935,354.474c0-5.764,4.674-10.438,10.44-10.438s10.439,4.675,10.439,10.438
					c0,5.767-4.674,10.441-10.439,10.441S179.935,360.241,179.935,354.474z"/>
			</g>
		</g>
	</g>
</g>
</svg>
